<svg width="23" height="21" viewBox="0 0 23 21" fill="none" xmlns="http://www.w3.org/2000/svg">
<path d="M18.8062 8.04197C18.8199 6.98119 19.1017 5.94109 19.6253 5.01846C20.149 4.09583 20.8975 3.32065 21.8012 2.76503C21.2271 1.94509 20.4697 1.2703 19.5892 0.794274C18.7086 0.318248 17.7292 0.0540943 16.7288 0.0227919C14.5946 -0.201221 12.5256 1.29985 11.4381 1.29985C10.3295 1.29985 8.65503 0.045033 6.85193 0.0821312C5.68564 0.119812 4.549 0.458961 3.55275 1.06654C2.5565 1.67411 1.73463 2.52939 1.1672 3.54904C-1.29076 7.80462 0.542661 14.0589 2.89718 17.4988C4.0752 19.1832 5.45196 21.0647 7.25343 20.998C9.01627 20.9249 9.67466 19.8739 11.8026 19.8739C13.9107 19.8739 14.5284 20.998 16.3664 20.9556C18.2581 20.9249 19.4499 19.2637 20.5866 17.5633C21.433 16.3631 22.0843 15.0366 22.5163 13.633C21.4174 13.1682 20.4795 12.3901 19.8198 11.3959C19.16 10.4017 18.8075 9.2352 18.8062 8.04197Z" fill="white"/>
</svg>
